Patient4_TMGait_0pt4_01_left_45_EMG.mot
version=1
nRows=26
nColumns=33
inDegrees=no
endheader
time	1LAddLong	2LGlutMax	3LGlutMed	4LIliopsoas	5LSemiMemb	6LBicFemLong	7LRecFem	8LVastMed	9LVastLat	10LGasMed	11LTibAnt	12lTibPost	13LPeroneusLong	14LSol	15LExtDigLong	16LFlexDigLong	17RAddLong	18RGlutMax	19RGlutMed	20RIliopsoas	21RSemiMemb	22RBicFemLong	23RRecFem	24RVastMed	25RVastLat	26RGasMed	27RTibAnt	28RTibPost	29RPeroneusLong	30RSol	31RExtDigLong	32RFlexDigLong
57.32	-0.000458	0.1561	0.040894	-0.001526	-0.041809	-0.15717	0.085297	0.011902	-0.10498	-0.045319	-0.029755	0.052643	-0.20889	0.28015	-0.29724	0.016937	-0.031433	-0.20447	0.48309	0.011139	0.06485	0.040436	0.38345	-0.077362	-0.026855	-0.005341	0.13748	-0.001373	-0.16312	-0.03479	-0.000305	-0.021973
57.321	0.000305	0.16373	0.038452	-0.00885	-0.022888	-0.053406	-0.050201	0.000458	-0.067291	-0.057831	-0.1265	0.046234	-0.98709	0.25238	-0.48981	0.024109	0.004578	-0.28992	-0.41504	-0.009918	0.13428	-0.11887	0.41214	-0.089722	-0.014496	-0.007935	0.15015	-0.00824	-0.091553	-0.31265	-0.001526	-0.017548
57.322	0.003357	0.16388	0.002899	-0.004883	-0.005493	-0.17639	-0.10971	-0.001831	-0.009613	-0.10101	-0.12207	0.04776	-0.99701	0.25803	-0.28275	0.018311	-0.006256	-0.32608	-0.53741	0.015259	0.14542	-0.1738	0.44678	-0.034332	-0.001068	-0.009155	0.033417	-0.012054	0.063324	-0.46799	-0.002594	-0.012512
57.323	0.009308	0.22217	0.020599	0.015411	-0.005188	-0.28778	-0.18784	0.007172	-0.036621	-0.086975	-0.077515	0.039673	-0.51956	0.21774	-0.095062	0.003967	0.010834	-0.35339	-0.21927	0.00061	0.12344	-0.1651	0.4126	-0.007782	0.009613	-0.013885	0.016022	-0.01709	0.00885	-0.36285	-0.004883	-0.014648
57.324	-0.005951	0.23377	-0.001984	0.009918	-0.010834	-0.031891	-0.26047	0.018463	-0.087891	-0.079498	-0.024414	0.031128	0.38696	0.19211	0.093994	0.006561	0.023041	-0.41153	-0.43655	-0.046082	0.062103	-0.17502	0.34546	-0.10223	0.050964	-0.007324	-0.059052	-0.013428	-0.022278	0.06012	-0.000153	-0.012512
57.325	-0.007477	0.18585	-0.051117	-0.015717	-0.024109	0.07309	-0.22964	0.023804	-0.11902	-0.058594	0.041809	0.016174	0.55679	0.037842	0.13596	0.002747	0.069427	-0.42801	-0.49927	-0.16647	0.024567	-0.13992	0.36179	-0.11673	0.087891	0.009155	-0.16327	-0.005646	-0.070648	0.29205	-0.00061	0.005341
57.326	-0.015259	0.16235	-0.010223	-0.023651	-0.032959	-0.070496	-0.18509	0.026703	-0.045624	-0.065613	0.070343	0.002747	-0.41992	-0.074921	0.30334	-0.006256	0.071564	-0.51148	-0.51254	-0.20172	0.003204	-0.12024	0.43747	-0.042725	0.042725	0.018158	-0.12146	-0.001984	-0.15305	0.25635	-0.001221	-0.003815
57.327	0.006714	0.075836	0.005951	-0.003662	-0.023804	-0.11444	-0.15671	0.015106	0.016174	-0.012054	0.054474	-0.007477	-0.63202	-0.04776	0.12558	0.002594	0.027924	-0.56244	-0.56152	-0.17609	0.001678	-0.047455	0.40009	-0.030365	0.011292	0.018463	-0.06485	-0.010986	-0.20752	0.14343	0.005798	-0.006714
57.328	0.016022	0.00824	0.11002	0.05249	-0.038452	-0.068207	-0.084076	0.00473	0.033569	0.32562	0.013428	-0.031281	-0.26611	-0.19745	0.073547	0.001373	0.010376	-0.63446	-0.49439	-0.033569	0.006409	-0.031433	0.28717	-0.026855	-0.05249	0.015564	-0.015259	-0.005188	-0.2092	0.090942	-0.002899	-0.003967
57.329	0.021973	0.00061	0.16693	0.045471	-0.018463	0.070343	-0.010071	-0.032959	0.0737	0.37949	-0.050354	-0.041504	0.13504	-0.21774	0.066071	0.011444	-0.007477	-0.71198	-0.4039	0.074158	0.030365	0.011749	0.18982	-0.037079	-0.060272	0.016632	0.036163	-0.004425	-0.060272	-0.018005	-0.005341	-0.003357
57.33	0.017395	-0.103	0.027313	0.034637	-0.016174	0.17792	0.074615	-0.027924	0.050812	-0.088196	-0.063782	-0.043945	0.17075	-0.075073	0.046692	0.014343	-0.044861	-0.77805	-0.39261	0.20828	0.022888	-0.088501	0.13672	-0.037384	-0.003204	0.007629	0.010834	-0.006866	0.11398	-0.16678	0.001373	-0.011902
57.331	0.023193	-0.098724	-0.062866	0.026245	0.004425	0.17181	0.067596	-0.009308	0.041046	-0.34195	-0.084686	-0.052795	-0.12833	-0.2005	0.024567	0.01236	-0.037689	-0.81161	-0.35904	0.31265	0.039368	-0.07019	0.18738	-0.068817	0.00351	0.002136	0.017395	-0.013123	0.095215	-0.13886	-0.005188	-0.00885
57.332	0.031891	-0.12024	-0.044708	0.006866	-0.007629	0.043335	0.014954	0.00412	0.077667	0.091858	-0.074463	-0.046539	-0.066071	-0.32196	-0.17334	0.018005	-0.014648	-0.82809	-0.68436	0.25757	0.023499	-0.042419	0.28275	-0.055084	-0.010376	0.006866	-0.016479	-0.006866	0.036011	-0.03479	0.001678	-0.015259
57.333	0.031586	-0.16357	-0.10529	-0.003357	-0.011139	0.090637	-0.1181	0.003662	0.14114	0.19012	0.019531	-0.042725	0.19073	-0.28961	-0.21149	0.000763	0.010986	-0.84701	-0.33432	0.13916	0.003052	-0.03418	0.30167	-0.035553	-0.005493	-0.001831	-0.010071	0.001373	-0.01297	0.09491	0.001068	-0.018921
57.334	0.020294	-0.23331	-0.14893	-0.011292	-0.021515	0.06897	-0.16083	-0.00351	0.15747	0.057068	0.069427	-0.057831	-0.1268	-0.10483	-0.057831	-0.001678	0.012207	-0.97778	-0.21515	0.14023	-0.015564	0.015564	0.29282	-0.052032	0.006256	-0.000305	-0.008698	0.001678	-0.095673	0.18707	-0.002594	-0.00946
57.335	0.009918	-0.27313	-0.11673	0.006561	-0.02121	0.055084	-0.10757	-0.009003	0.15976	0.010986	-0.11307	-0.061646	0.13519	-0.3685	-0.015411	0.001678	0.033569	-0.97855	-0.36255	0.12878	-0.013123	0.023041	0.22766	0.018311	0.004883	-0.011444	-0.006256	0.005341	-0.027771	0.18005	-0.002747	-0.014801
57.336	0.008392	-0.28183	-0.18494	-0.008087	-0.00351	-0.11475	-0.087585	-0.018768	0.16052	-0.073395	-0.19196	-0.045471	0.79834	-0.28824	0.28839	-0.012512	0.045776	-1.0057	-0.44739	0.077209	-0.021362	0.014954	0.25772	0.009155	0	-0.014954	0.01236	0.005188	0.11169	-0.080872	-0.003052	-0.019836
57.337	0.007477	-0.3093	-0.19104	-0.008698	0.001678	-0.4744	-0.076294	-0.028534	0.20371	-0.051422	-0.1474	-0.033417	0.86456	-0.018158	0.059814	-0.003967	0.034943	-1.0452	-0.58258	0.031433	-0.027008	0.026093	0.23041	0.029755	0.009766	-0.005951	0.021667	0.003967	0.089874	-0.17838	-0.007019	-0.019989
57.338	0.014496	-0.33234	-0.15411	-0.02182	-0.000153	-0.47348	-0.14511	-0.018768	0.15274	-0.05722	-0.18585	-0.037994	0.14603	0.14648	0.58487	0.002594	0.034943	-0.99579	-0.69687	0.033417	-0.02655	0.005798	0.25497	0.00412	0.007629	-0.000305	0.06134	-0.003204	-0.045929	-0.13657	-0.005493	-0.013733
57.339	-0.033112	-0.33478	-0.094757	-0.006714	-0.016785	-0.24155	-0.17593	-0.001221	0.074921	-0.046082	0.09079	-0.048676	-0.32227	0.26916	0.013275	0.005341	0.013885	-1.0027	-0.78583	-0.011292	-0.036163	-0.030212	0.24033	-0.043488	0.018311	-0.006256	0.054474	-0.005188	-0.16586	-0.1683	-0.002594	-0.017395
57.34	0.02243	-0.28488	-0.080566	-0.00061	-0.026245	0.044861	-0.16098	0.014191	0.054169	-0.037537	0.40024	-0.06073	1.0155	0.11459	-0.10468	-0.006866	-0.011902	-1.024	-0.55801	-0.069427	-0.042725	-0.065765	0.20584	-0.028534	0.021973	-0.006256	0.066223	-0.013885	-0.1091	-0.23514	-0.006561	-0.012512
57.341	-0.015259	-0.2243	-0.10025	0.029907	-0.042877	0.19211	-0.16907	0.003967	-0.013733	-0.076599	0.065002	-0.058136	0.58029	0.17853	-0.018463	-0.007477	-0.038605	-1.0114	-0.19318	-0.10162	-0.048981	-0.062103	0.14877	-0.022888	0.006561	-0.003204	0.11627	-0.011444	0.018311	-0.40604	-0.005493	-0.014954
57.342	0.000916	-0.15228	-0.12314	0.01236	-0.035553	0.31097	-0.27145	0.001221	0.028992	-0.009155	0.056	-0.057068	-1.5468	0.29526	-0.21729	-0.010986	-0.009003	-1.0185	-0.27969	-0.065613	-0.067139	-0.060425	0.20371	-0.024109	0.026398	-0.007172	0.15045	-0.008545	0.054779	-0.46265	-0.005798	-0.008698
57.343	0.005798	-0.063324	-0.19028	0.008087	-0.028381	0.39352	-0.34225	0.002441	-0.048065	-0.019989	0.071716	-0.047302	-1.0638	0.2562	0.34821	-0.018005	0.004578	-0.9436	-0.67337	-0.015259	-0.090332	-0.10544	0.19821	-0.048523	0.031281	-0.002747	0.14587	-0.018616	0.13229	-0.53055	-0.005798	-0.015259
57.344	0.001068	-0.044098	-0.15366	0.014343	-0.048828	0.52246	-0.32105	-0.004578	-0.10956	-0.050201	0.071869	-0.044556	0.42221	0.23041	-0.050354	-0.013123	0.000916	-0.86334	-0.076141	-0.008545	-0.092926	-0.10819	0.21271	-0.010223	0.039825	-0.003662	-0.026855	-0.014343	0.093079	-0.33661	-0.000916	-0.015564
57.345	0.001526	-0.034027	-0.15793	-0.007019	-0.039978	0.48019	-0.3096	0.002747	-0.16708	-0.036621	0.084839	-0.041199	0.65857	0.16525	0.055237	-0.002899	0.016174	-0.8876	-0.010223	0.020599	-0.10254	-0.071106	0.19394	0.036316	0.062103	0.000305	-0.18906	-0.010681	0.14542	-0.31036	-0.000916	-0.013275
